<?xml version="1.0" standalone="no"?>
<!DOCTYPE svg PUBLIC "-//W3C//DTD SVG 1.1//EN"
"http://www.w3.org/Graphics/SVG/1.1/DTD/svg11.dtd">

<svg width="340" height="281" view_box="0 0 340 281"
xmlns="http://www.w3.org/2000/svg"
xmlns:link="http://www.w3.org/1999/xlink">\n\n<desc>Généré par Mocodo 2.3.7 le Tue, 07 Jun 2022 02:20:44</desc>

<rect id="frame" x="0" y="0" width="340" height="281" fill="#f7f7f7" stroke="none" stroke-width="0"/>

<!-- Association créer -->
<line x1="279" y1="187" x2="172" y2="187" stroke="#4393c3" stroke-width="2"/>
<text x="200" y="204.0" fill="#b2182b" font-family="Verdana" font-size="12">0,N</text>
<line x1="53" y1="187" x2="172" y2="187" stroke="#4393c3" stroke-width="2"/>
<text x="102" y="204.0" fill="#b2182b" font-family="Verdana" font-size="12">1,1</text>
<g id="association-créer">
	<path d="M 181 162 a 14 14 90 0 1 14 14 V 187 h -46 V 176 a 14 14 90 0 1 14 -14" fill="#92c5de" stroke="#92c5de" stroke-width="0"/>
	<path d="M 195 187.0 v 11 a 14 14 90 0 1 -14 14 H 163 a 14 14 90 0 1 -14 -14 V 187.0 H 46" fill="#d1e5f0" stroke="#d1e5f0" stroke-width="0"/>
	<rect x="149" y="162" width="46" height="50" fill="none" rx="14" stroke="#4393c3" stroke-width="2"/>
	<line x1="149" y1="187" x2="195" y2="187" stroke="#4393c3" stroke-width="1"/>
	<text x="156" y="179.7" fill="#000000" font-family="Verdana" font-size="12">créer</text>
</g>

<!-- Association appartenir -->
<line x1="53" y1="187" x2="53" y2="43" stroke="#4393c3" stroke-width="2"/>
<text x="58.0" y="94" fill="#b2182b" font-family="Verdana" font-size="12">1,1</text>
<line x1="172" y1="43" x2="53" y2="43" stroke="#4393c3" stroke-width="2"/>
<text x="97" y="60.0" fill="#b2182b" font-family="Verdana" font-size="12">0,N</text>
<g id="association-appartenir">
	<path d="M 78 18 a 14 14 90 0 1 14 14 V 43 h -78 V 32 a 14 14 90 0 1 14 -14" fill="#92c5de" stroke="#92c5de" stroke-width="0"/>
	<path d="M 92 43.0 v 11 a 14 14 90 0 1 -14 14 H 28 a 14 14 90 0 1 -14 -14 V 43.0 H 78" fill="#d1e5f0" stroke="#d1e5f0" stroke-width="0"/>
	<rect x="14" y="18" width="78" height="50" fill="none" rx="14" stroke="#4393c3" stroke-width="2"/>
	<line x1="14" y1="43" x2="92" y2="43" stroke="#4393c3" stroke-width="1"/>
	<text x="21" y="35.7" fill="#000000" font-family="Verdana" font-size="12">appartenir</text>
</g>

<!-- Entity Difficulté -->
<g id="entity-Difficulté">
	<g id="frame-Difficulté">
		<rect x="124" y="9" width="96" height="25" fill="#f4a582" stroke="#f4a582" stroke-width="0"/>
		<rect x="124" y="34.0" width="96" height="43" fill="#fddbc7" stroke="#fddbc7" stroke-width="0"/>
		<rect x="124" y="9" width="96" height="68" fill="none" stroke="#d6604d" stroke-width="2"/>
		<line x1="124" y1="34" x2="220" y2="34" stroke="#d6604d" stroke-width="1"/>
	</g>
	<text x="145" y="26.7" fill="#000000" font-family="Verdana" font-size="12">Difficulté</text>
	<text x="129" y="51.8" fill="#000000" font-family="Verdana" font-size="12">code difficulté</text>
	<line x1="129" y1="54" x2="214" y2="54" stroke="#000000" stroke-width="1"/>
	<text x="129" y="68.8" fill="#000000" font-family="Verdana" font-size="12">label</text>
</g>

<!-- Entity Trek -->
<g id="entity-Trek">
	<g id="frame-Trek">
		<rect x="9" y="102" width="88" height="25" fill="#f4a582" stroke="#f4a582" stroke-width="0"/>
		<rect x="9" y="127.0" width="88" height="145" fill="#fddbc7" stroke="#fddbc7" stroke-width="0"/>
		<rect x="9" y="102" width="88" height="170" fill="none" stroke="#d6604d" stroke-width="2"/>
		<line x1="9" y1="127" x2="97" y2="127" stroke="#d6604d" stroke-width="1"/>
	</g>
	<text x="39" y="119.7" fill="#000000" font-family="Verdana" font-size="12">Trek</text>
	<text x="14" y="144.7" fill="#000000" font-family="Verdana" font-size="12">code trek</text>
	<line x1="14" y1="147" x2="72" y2="147" stroke="#000000" stroke-width="1"/>
	<text x="14" y="161.7" fill="#000000" font-family="Verdana" font-size="12">titre</text>
	<text x="14" y="178.7" fill="#000000" font-family="Verdana" font-size="12">description</text>
	<text x="14" y="195.8" fill="#000000" font-family="Verdana" font-size="12">distance</text>
	<text x="14" y="212.8" fill="#000000" font-family="Verdana" font-size="12">durée</text>
	<text x="14" y="229.8" fill="#000000" font-family="Verdana" font-size="12">ville</text>
	<text x="14" y="246.8" fill="#000000" font-family="Verdana" font-size="12">coordonnées</text>
	<text x="14" y="263.8" fill="#000000" font-family="Verdana" font-size="12">images</text>
</g>

<!-- Entity Utilisateur -->
<g id="entity-Utilisateur">
	<g id="frame-Utilisateur">
		<rect x="227" y="128" width="104" height="25" fill="#f4a582" stroke="#f4a582" stroke-width="0"/>
		<rect x="227" y="153.0" width="104" height="93" fill="#fddbc7" stroke="#fddbc7" stroke-width="0"/>
		<rect x="227" y="128" width="104" height="118" fill="none" stroke="#d6604d" stroke-width="2"/>
		<line x1="227" y1="153" x2="331" y2="153" stroke="#d6604d" stroke-width="1"/>
	</g>
	<text x="248" y="145.7" fill="#000000" font-family="Verdana" font-size="12">Utilisateur</text>
	<text x="232" y="170.7" fill="#000000" font-family="Verdana" font-size="12">code utilisateur</text>
	<line x1="232" y1="173" x2="326" y2="173" stroke="#000000" stroke-width="1"/>
	<text x="232" y="187.8" fill="#000000" font-family="Verdana" font-size="12">prénom</text>
	<text x="232" y="204.8" fill="#000000" font-family="Verdana" font-size="12">nom</text>
	<text x="232" y="221.8" fill="#000000" font-family="Verdana" font-size="12">email</text>
	<text x="232" y="238.8" fill="#000000" font-family="Verdana" font-size="12">mot de passe</text>
</g>
</svg>